# xmcd
#
# Track frame offsets: 
#        150
#        23324
#        36054
#        46553
#        62097
#        74783
#        87110
#        98338
#        109687
#        120008
#        136705
#        147771
#        158814
#        169603
#
# Disc length: 2403 seconds
#
# Revision: 3
# Processed by: cddbd v1.5.2PL0 Copyright (c) Steve Scherf et al.
# Submitted via: ExactAudioCopy v1.0b4
#
DISCID=9b09610e
DTITLE=Johnny Copeland - Ghetto Child
DYEAR=2003
DGENRE=Blues
TTITLE0=Rock Me Baby
TTITLE1=Let Me Cry
TTITLE2=Something's Up Your Sleeve
TTITLE3=Ghetto Child
TTITLE4=Daily Bread
TTITLE5=Heebie Jeebies
TTITLE6=Mama Told Me
TTITLE7=May The Best Man Win
TTITLE8=Proving Time
TTITLE9=You've Got Me Singing A Love Song
TTITLE10=Please Let Me Know
TTITLE11=Coming To See About You
TTITLE12=House Of So Many Tears
TTITLE13=Soul Power
EXTD=
EXTT0=
EXTT1=
EXTT2=
EXTT3=
EXTT4=
EXTT5=
EXTT6=
EXTT7=
EXTT8=
EXTT9=
EXTT10=
EXTT11=
EXTT12=
EXTT13=
PLAYORDER=
